<?xml version="1.0" encoding="utf-8"?>
<svg xmlns="http://www.w3.org/2000/svg" xmlns:xlink="http://www.w3.org/1999/xlink" width="600" height="400" viewBox="0 0 2400 1600">
<defs>
  <clipPath id="clip380">
    <rect x="0" y="0" width="2400" height="1600"/>
  </clipPath>
</defs>
<path clip-path="url(#clip380)" d="M0 1600 L2400 1600 L2400 0 L0 0  Z" fill="#ffffff" fill-rule="evenodd" fill-opacity="1"/>
<defs>
  <clipPath id="clip381">
    <rect x="186" y="123" width="2167" height="1364"/>
  </clipPath>
</defs>
<path clip-path="url(#clip380)" d="M186.274 1486.45 L2352.76 1486.45 L2352.76 123.472 L186.274 123.472  Z" fill="#ffffff" fill-rule="evenodd" fill-opacity="1"/>
<polyline clip-path="url(#clip381)" style="stroke:#000000; stroke-linecap:round; stroke-linejoin:round; stroke-width:2; stroke-opacity:0.1; fill:none" points="247.59,1486.45 247.59,123.472 "/>
<polyline clip-path="url(#clip381)" style="stroke:#000000; stroke-linecap:round; stroke-linejoin:round; stroke-width:2; stroke-opacity:0.1; fill:none" points="656.36,1486.45 656.36,123.472 "/>
<polyline clip-path="url(#clip381)" style="stroke:#000000; stroke-linecap:round; stroke-linejoin:round; stroke-width:2; stroke-opacity:0.1; fill:none" points="1065.13,1486.45 1065.13,123.472 "/>
<polyline clip-path="url(#clip381)" style="stroke:#000000; stroke-linecap:round; stroke-linejoin:round; stroke-width:2; stroke-opacity:0.1; fill:none" points="1473.9,1486.45 1473.9,123.472 "/>
<polyline clip-path="url(#clip381)" style="stroke:#000000; stroke-linecap:round; stroke-linejoin:round; stroke-width:2; stroke-opacity:0.1; fill:none" points="1882.67,1486.45 1882.67,123.472 "/>
<polyline clip-path="url(#clip381)" style="stroke:#000000; stroke-linecap:round; stroke-linejoin:round; stroke-width:2; stroke-opacity:0.1; fill:none" points="2291.44,1486.45 2291.44,123.472 "/>
<polyline clip-path="url(#clip381)" style="stroke:#000000; stroke-linecap:round; stroke-linejoin:round; stroke-width:2; stroke-opacity:0.1; fill:none" points="186.274,1448.8 2352.76,1448.8 "/>
<polyline clip-path="url(#clip381)" style="stroke:#000000; stroke-linecap:round; stroke-linejoin:round; stroke-width:2; stroke-opacity:0.1; fill:none" points="186.274,1130.32 2352.76,1130.32 "/>
<polyline clip-path="url(#clip381)" style="stroke:#000000; stroke-linecap:round; stroke-linejoin:round; stroke-width:2; stroke-opacity:0.1; fill:none" points="186.274,811.852 2352.76,811.852 "/>
<polyline clip-path="url(#clip381)" style="stroke:#000000; stroke-linecap:round; stroke-linejoin:round; stroke-width:2; stroke-opacity:0.1; fill:none" points="186.274,493.38 2352.76,493.38 "/>
<polyline clip-path="url(#clip381)" style="stroke:#000000; stroke-linecap:round; stroke-linejoin:round; stroke-width:2; stroke-opacity:0.1; fill:none" points="186.274,174.908 2352.76,174.908 "/>
<polyline clip-path="url(#clip380)" style="stroke:#000000; stroke-linecap:round; stroke-linejoin:round; stroke-width:4; stroke-opacity:1; fill:none" points="186.274,1486.45 2352.76,1486.45 "/>
<polyline clip-path="url(#clip380)" style="stroke:#000000; stroke-linecap:round; stroke-linejoin:round; stroke-width:4; stroke-opacity:1; fill:none" points="247.59,1486.45 247.59,1467.55 "/>
<polyline clip-path="url(#clip380)" style="stroke:#000000; stroke-linecap:round; stroke-linejoin:round; stroke-width:4; stroke-opacity:1; fill:none" points="656.36,1486.45 656.36,1467.55 "/>
<polyline clip-path="url(#clip380)" style="stroke:#000000; stroke-linecap:round; stroke-linejoin:round; stroke-width:4; stroke-opacity:1; fill:none" points="1065.13,1486.45 1065.13,1467.55 "/>
<polyline clip-path="url(#clip380)" style="stroke:#000000; stroke-linecap:round; stroke-linejoin:round; stroke-width:4; stroke-opacity:1; fill:none" points="1473.9,1486.45 1473.9,1467.55 "/>
<polyline clip-path="url(#clip380)" style="stroke:#000000; stroke-linecap:round; stroke-linejoin:round; stroke-width:4; stroke-opacity:1; fill:none" points="1882.67,1486.45 1882.67,1467.55 "/>
<polyline clip-path="url(#clip380)" style="stroke:#000000; stroke-linecap:round; stroke-linejoin:round; stroke-width:4; stroke-opacity:1; fill:none" points="2291.44,1486.45 2291.44,1467.55 "/>
<path clip-path="url(#clip380)" d="M247.59 1517.37 Q243.978 1517.37 242.15 1520.93 Q240.344 1524.47 240.344 1531.6 Q240.344 1538.71 242.15 1542.27 Q243.978 1545.82 247.59 1545.82 Q251.224 1545.82 253.029 1542.27 Q254.858 1538.71 254.858 1531.6 Q254.858 1524.47 253.029 1520.93 Q251.224 1517.37 247.59 1517.37 M247.59 1513.66 Q253.4 1513.66 256.455 1518.27 Q259.534 1522.85 259.534 1531.6 Q259.534 1540.33 256.455 1544.94 Q253.4 1549.52 247.59 1549.52 Q241.779 1549.52 238.701 1544.94 Q235.645 1540.33 235.645 1531.6 Q235.645 1522.85 238.701 1518.27 Q241.779 1513.66 247.59 1513.66 Z" fill="#000000" fill-rule="nonzero" fill-opacity="1" /><path clip-path="url(#clip380)" d="M646.742 1544.91 L654.381 1544.91 L654.381 1518.55 L646.07 1520.21 L646.07 1515.95 L654.334 1514.29 L659.01 1514.29 L659.01 1544.91 L666.649 1544.91 L666.649 1548.85 L646.742 1548.85 L646.742 1544.91 Z" fill="#000000" fill-rule="nonzero" fill-opacity="1" /><path clip-path="url(#clip380)" d="M1059.78 1544.91 L1076.1 1544.91 L1076.1 1548.85 L1054.16 1548.85 L1054.16 1544.91 Q1056.82 1542.16 1061.4 1537.53 Q1066.01 1532.88 1067.19 1531.53 Q1069.44 1529.01 1070.32 1527.27 Q1071.22 1525.51 1071.22 1523.82 Q1071.22 1521.07 1069.27 1519.33 Q1067.35 1517.6 1064.25 1517.6 Q1062.05 1517.6 1059.6 1518.36 Q1057.17 1519.13 1054.39 1520.68 L1054.39 1515.95 Q1057.21 1514.82 1059.67 1514.24 Q1062.12 1513.66 1064.16 1513.66 Q1069.53 1513.66 1072.72 1516.35 Q1075.92 1519.03 1075.92 1523.52 Q1075.92 1525.65 1075.11 1527.57 Q1074.32 1529.47 1072.21 1532.07 Q1071.63 1532.74 1068.53 1535.95 Q1065.43 1539.15 1059.78 1544.91 Z" fill="#000000" fill-rule="nonzero" fill-opacity="1" /><path clip-path="url(#clip380)" d="M1478.15 1530.21 Q1481.5 1530.93 1483.38 1533.2 Q1485.28 1535.47 1485.28 1538.8 Q1485.28 1543.92 1481.76 1546.72 Q1478.24 1549.52 1471.76 1549.52 Q1469.58 1549.52 1467.27 1549.08 Q1464.98 1548.66 1462.52 1547.81 L1462.52 1543.29 Q1464.47 1544.43 1466.78 1545.01 Q1469.1 1545.58 1471.62 1545.58 Q1476.02 1545.58 1478.31 1543.85 Q1480.62 1542.11 1480.62 1538.8 Q1480.62 1535.75 1478.47 1534.03 Q1476.34 1532.3 1472.52 1532.3 L1468.49 1532.3 L1468.49 1528.45 L1472.71 1528.45 Q1476.16 1528.45 1477.99 1527.09 Q1479.81 1525.7 1479.81 1523.11 Q1479.81 1520.45 1477.92 1519.03 Q1476.04 1517.6 1472.52 1517.6 Q1470.6 1517.6 1468.4 1518.01 Q1466.2 1518.43 1463.56 1519.31 L1463.56 1515.14 Q1466.23 1514.4 1468.54 1514.03 Q1470.88 1513.66 1472.94 1513.66 Q1478.26 1513.66 1481.37 1516.09 Q1484.47 1518.5 1484.47 1522.62 Q1484.47 1525.49 1482.82 1527.48 Q1481.18 1529.45 1478.15 1530.21 Z" fill="#000000" fill-rule="nonzero" fill-opacity="1" /><path clip-path="url(#clip380)" d="M1885.68 1518.36 L1873.87 1536.81 L1885.68 1536.81 L1885.68 1518.36 M1884.45 1514.29 L1890.33 1514.29 L1890.33 1536.81 L1895.26 1536.81 L1895.26 1540.7 L1890.33 1540.7 L1890.33 1548.85 L1885.68 1548.85 L1885.68 1540.7 L1870.08 1540.7 L1870.08 1536.19 L1884.45 1514.29 Z" fill="#000000" fill-rule="nonzero" fill-opacity="1" /><path clip-path="url(#clip380)" d="M2281.72 1514.29 L2300.07 1514.29 L2300.07 1518.22 L2286 1518.22 L2286 1526.7 Q2287.02 1526.35 2288.04 1526.19 Q2289.06 1526 2290.07 1526 Q2295.86 1526 2299.24 1529.17 Q2302.62 1532.34 2302.62 1537.76 Q2302.62 1543.34 2299.15 1546.44 Q2295.68 1549.52 2289.36 1549.52 Q2287.18 1549.52 2284.91 1549.15 Q2282.67 1548.78 2280.26 1548.04 L2280.26 1543.34 Q2282.34 1544.47 2284.57 1545.03 Q2286.79 1545.58 2289.26 1545.58 Q2293.27 1545.58 2295.61 1543.48 Q2297.94 1541.37 2297.94 1537.76 Q2297.94 1534.15 2295.61 1532.04 Q2293.27 1529.94 2289.26 1529.94 Q2287.39 1529.94 2285.51 1530.35 Q2283.66 1530.77 2281.72 1531.65 L2281.72 1514.29 Z" fill="#000000" fill-rule="nonzero" fill-opacity="1" /><polyline clip-path="url(#clip380)" style="stroke:#000000; stroke-linecap:round; stroke-linejoin:round; stroke-width:4; stroke-opacity:1; fill:none" points="186.274,1486.45 186.274,123.472 "/>
<polyline clip-path="url(#clip380)" style="stroke:#000000; stroke-linecap:round; stroke-linejoin:round; stroke-width:4; stroke-opacity:1; fill:none" points="186.274,1448.8 205.172,1448.8 "/>
<polyline clip-path="url(#clip380)" style="stroke:#000000; stroke-linecap:round; stroke-linejoin:round; stroke-width:4; stroke-opacity:1; fill:none" points="186.274,1130.32 205.172,1130.32 "/>
<polyline clip-path="url(#clip380)" style="stroke:#000000; stroke-linecap:round; stroke-linejoin:round; stroke-width:4; stroke-opacity:1; fill:none" points="186.274,811.852 205.172,811.852 "/>
<polyline clip-path="url(#clip380)" style="stroke:#000000; stroke-linecap:round; stroke-linejoin:round; stroke-width:4; stroke-opacity:1; fill:none" points="186.274,493.38 205.172,493.38 "/>
<polyline clip-path="url(#clip380)" style="stroke:#000000; stroke-linecap:round; stroke-linejoin:round; stroke-width:4; stroke-opacity:1; fill:none" points="186.274,174.908 205.172,174.908 "/>
<path clip-path="url(#clip380)" d="M62.9365 1434.59 Q59.3254 1434.59 57.4967 1438.16 Q55.6912 1441.7 55.6912 1448.83 Q55.6912 1455.94 57.4967 1459.5 Q59.3254 1463.04 62.9365 1463.04 Q66.5707 1463.04 68.3763 1459.5 Q70.205 1455.94 70.205 1448.83 Q70.205 1441.7 68.3763 1438.16 Q66.5707 1434.59 62.9365 1434.59 M62.9365 1430.89 Q68.7467 1430.89 71.8022 1435.5 Q74.8809 1440.08 74.8809 1448.83 Q74.8809 1457.56 71.8022 1462.16 Q68.7467 1466.75 62.9365 1466.75 Q57.1264 1466.75 54.0477 1462.16 Q50.9921 1457.56 50.9921 1448.83 Q50.9921 1440.08 54.0477 1435.5 Q57.1264 1430.89 62.9365 1430.89 Z" fill="#000000" fill-rule="nonzero" fill-opacity="1" /><path clip-path="url(#clip380)" d="M83.0984 1460.2 L87.9827 1460.2 L87.9827 1466.08 L83.0984 1466.08 L83.0984 1460.2 Z" fill="#000000" fill-rule="nonzero" fill-opacity="1" /><path clip-path="url(#clip380)" d="M108.168 1434.59 Q104.557 1434.59 102.728 1438.16 Q100.922 1441.7 100.922 1448.83 Q100.922 1455.94 102.728 1459.5 Q104.557 1463.04 108.168 1463.04 Q111.802 1463.04 113.608 1459.5 Q115.436 1455.94 115.436 1448.83 Q115.436 1441.7 113.608 1438.16 Q111.802 1434.59 108.168 1434.59 M108.168 1430.89 Q113.978 1430.89 117.033 1435.5 Q120.112 1440.08 120.112 1448.83 Q120.112 1457.56 117.033 1462.16 Q113.978 1466.75 108.168 1466.75 Q102.358 1466.75 99.2789 1462.16 Q96.2234 1457.56 96.2234 1448.83 Q96.2234 1440.08 99.2789 1435.5 Q102.358 1430.89 108.168 1430.89 Z" fill="#000000" fill-rule="nonzero" fill-opacity="1" /><path clip-path="url(#clip380)" d="M138.33 1434.59 Q134.719 1434.59 132.89 1438.16 Q131.084 1441.7 131.084 1448.83 Q131.084 1455.94 132.89 1459.5 Q134.719 1463.04 138.33 1463.04 Q141.964 1463.04 143.769 1459.5 Q145.598 1455.94 145.598 1448.83 Q145.598 1441.7 143.769 1438.16 Q141.964 1434.59 138.33 1434.59 M138.33 1430.89 Q144.14 1430.89 147.195 1435.5 Q150.274 1440.08 150.274 1448.83 Q150.274 1457.56 147.195 1462.16 Q144.14 1466.75 138.33 1466.75 Q132.519 1466.75 129.441 1462.16 Q126.385 1457.56 126.385 1448.83 Q126.385 1440.08 129.441 1435.5 Q132.519 1430.89 138.33 1430.89 Z" fill="#000000" fill-rule="nonzero" fill-opacity="1" /><path clip-path="url(#clip380)" d="M63.9319 1116.12 Q60.3208 1116.12 58.4921 1119.69 Q56.6865 1123.23 56.6865 1130.36 Q56.6865 1137.46 58.4921 1141.03 Q60.3208 1144.57 63.9319 1144.57 Q67.5661 1144.57 69.3717 1141.03 Q71.2004 1137.46 71.2004 1130.36 Q71.2004 1123.23 69.3717 1119.69 Q67.5661 1116.12 63.9319 1116.12 M63.9319 1112.42 Q69.742 1112.42 72.7976 1117.03 Q75.8763 1121.61 75.8763 1130.36 Q75.8763 1139.09 72.7976 1143.69 Q69.742 1148.28 63.9319 1148.28 Q58.1217 1148.28 55.043 1143.69 Q51.9875 1139.09 51.9875 1130.36 Q51.9875 1121.61 55.043 1117.03 Q58.1217 1112.42 63.9319 1112.42 Z" fill="#000000" fill-rule="nonzero" fill-opacity="1" /><path clip-path="url(#clip380)" d="M84.0938 1141.72 L88.978 1141.72 L88.978 1147.6 L84.0938 1147.6 L84.0938 1141.72 Z" fill="#000000" fill-rule="nonzero" fill-opacity="1" /><path clip-path="url(#clip380)" d="M103.191 1143.67 L119.51 1143.67 L119.51 1147.6 L97.566 1147.6 L97.566 1143.67 Q100.228 1140.91 104.811 1136.28 Q109.418 1131.63 110.598 1130.29 Q112.844 1127.77 113.723 1126.03 Q114.626 1124.27 114.626 1122.58 Q114.626 1119.83 112.682 1118.09 Q110.76 1116.35 107.658 1116.35 Q105.459 1116.35 103.006 1117.12 Q100.575 1117.88 97.7974 1119.43 L97.7974 1114.71 Q100.621 1113.58 103.075 1113 Q105.529 1112.42 107.566 1112.42 Q112.936 1112.42 116.131 1115.1 Q119.325 1117.79 119.325 1122.28 Q119.325 1124.41 118.515 1126.33 Q117.728 1128.23 115.621 1130.82 Q115.043 1131.49 111.941 1134.71 Q108.839 1137.9 103.191 1143.67 Z" fill="#000000" fill-rule="nonzero" fill-opacity="1" /><path clip-path="url(#clip380)" d="M129.371 1113.04 L147.728 1113.04 L147.728 1116.98 L133.654 1116.98 L133.654 1125.45 Q134.672 1125.1 135.691 1124.94 Q136.709 1124.76 137.728 1124.76 Q143.515 1124.76 146.894 1127.93 Q150.274 1131.1 150.274 1136.52 Q150.274 1142.09 146.802 1145.2 Q143.33 1148.28 137.01 1148.28 Q134.834 1148.28 132.566 1147.9 Q130.32 1147.53 127.913 1146.79 L127.913 1142.09 Q129.996 1143.23 132.219 1143.78 Q134.441 1144.34 136.918 1144.34 Q140.922 1144.34 143.26 1142.23 Q145.598 1140.13 145.598 1136.52 Q145.598 1132.9 143.26 1130.8 Q140.922 1128.69 136.918 1128.69 Q135.043 1128.69 133.168 1129.11 Q131.316 1129.53 129.371 1130.4 L129.371 1113.04 Z" fill="#000000" fill-rule="nonzero" fill-opacity="1" /><path clip-path="url(#clip380)" d="M62.9365 797.651 Q59.3254 797.651 57.4967 801.215 Q55.6912 804.757 55.6912 811.887 Q55.6912 818.993 57.4967 822.558 Q59.3254 826.1 62.9365 826.1 Q66.5707 826.1 68.3763 822.558 Q70.205 818.993 70.205 811.887 Q70.205 804.757 68.3763 801.215 Q66.5707 797.651 62.9365 797.651 M62.9365 793.947 Q68.7467 793.947 71.8022 798.553 Q74.8809 803.137 74.8809 811.887 Q74.8809 820.613 71.8022 825.22 Q68.7467 829.803 62.9365 829.803 Q57.1264 829.803 54.0477 825.22 Q50.9921 820.613 50.9921 811.887 Q50.9921 803.137 54.0477 798.553 Q57.1264 793.947 62.9365 793.947 Z" fill="#000000" fill-rule="nonzero" fill-opacity="1" /><path clip-path="url(#clip380)" d="M83.0984 823.252 L87.9827 823.252 L87.9827 829.132 L83.0984 829.132 L83.0984 823.252 Z" fill="#000000" fill-rule="nonzero" fill-opacity="1" /><path clip-path="url(#clip380)" d="M98.2141 794.572 L116.57 794.572 L116.57 798.507 L102.496 798.507 L102.496 806.979 Q103.515 806.632 104.534 806.47 Q105.552 806.285 106.571 806.285 Q112.358 806.285 115.737 809.456 Q119.117 812.627 119.117 818.044 Q119.117 823.623 115.645 826.725 Q112.172 829.803 105.853 829.803 Q103.677 829.803 101.409 829.433 Q99.1632 829.063 96.7558 828.322 L96.7558 823.623 Q98.8391 824.757 101.061 825.313 Q103.284 825.868 105.76 825.868 Q109.765 825.868 112.103 823.762 Q114.441 821.655 114.441 818.044 Q114.441 814.433 112.103 812.326 Q109.765 810.22 105.76 810.22 Q103.885 810.22 102.01 810.637 Q100.159 811.053 98.2141 811.933 L98.2141 794.572 Z" fill="#000000" fill-rule="nonzero" fill-opacity="1" /><path clip-path="url(#clip380)" d="M138.33 797.651 Q134.719 797.651 132.89 801.215 Q131.084 804.757 131.084 811.887 Q131.084 818.993 132.89 822.558 Q134.719 826.1 138.33 826.1 Q141.964 826.1 143.769 822.558 Q145.598 818.993 145.598 811.887 Q145.598 804.757 143.769 801.215 Q141.964 797.651 138.33 797.651 M138.33 793.947 Q144.14 793.947 147.195 798.553 Q150.274 803.137 150.274 811.887 Q150.274 820.613 147.195 825.22 Q144.14 829.803 138.33 829.803 Q132.519 829.803 129.441 825.22 Q126.385 820.613 126.385 811.887 Q126.385 803.137 129.441 798.553 Q132.519 793.947 138.33 793.947 Z" fill="#000000" fill-rule="nonzero" fill-opacity="1" /><path clip-path="url(#clip380)" d="M63.9319 479.179 Q60.3208 479.179 58.4921 482.744 Q56.6865 486.285 56.6865 493.415 Q56.6865 500.521 58.4921 504.086 Q60.3208 507.628 63.9319 507.628 Q67.5661 507.628 69.3717 504.086 Q71.2004 500.521 71.2004 493.415 Q71.2004 486.285 69.3717 482.744 Q67.5661 479.179 63.9319 479.179 M63.9319 475.475 Q69.742 475.475 72.7976 480.082 Q75.8763 484.665 75.8763 493.415 Q75.8763 502.142 72.7976 506.748 Q69.742 511.331 63.9319 511.331 Q58.1217 511.331 55.043 506.748 Q51.9875 502.142 51.9875 493.415 Q51.9875 484.665 55.043 480.082 Q58.1217 475.475 63.9319 475.475 Z" fill="#000000" fill-rule="nonzero" fill-opacity="1" /><path clip-path="url(#clip380)" d="M84.0938 504.781 L88.978 504.781 L88.978 510.66 L84.0938 510.66 L84.0938 504.781 Z" fill="#000000" fill-rule="nonzero" fill-opacity="1" /><path clip-path="url(#clip380)" d="M97.9826 476.1 L120.205 476.1 L120.205 478.091 L107.658 510.66 L102.774 510.66 L114.58 480.035 L97.9826 480.035 L97.9826 476.1 Z" fill="#000000" fill-rule="nonzero" fill-opacity="1" /><path clip-path="url(#clip380)" d="M129.371 476.1 L147.728 476.1 L147.728 480.035 L133.654 480.035 L133.654 488.507 Q134.672 488.16 135.691 487.998 Q136.709 487.813 137.728 487.813 Q143.515 487.813 146.894 490.984 Q150.274 494.156 150.274 499.572 Q150.274 505.151 146.802 508.253 Q143.33 511.331 137.01 511.331 Q134.834 511.331 132.566 510.961 Q130.32 510.591 127.913 509.85 L127.913 505.151 Q129.996 506.285 132.219 506.841 Q134.441 507.396 136.918 507.396 Q140.922 507.396 143.26 505.29 Q145.598 503.183 145.598 499.572 Q145.598 495.961 143.26 493.855 Q140.922 491.748 136.918 491.748 Q135.043 491.748 133.168 492.165 Q131.316 492.581 129.371 493.461 L129.371 476.1 Z" fill="#000000" fill-rule="nonzero" fill-opacity="1" /><path clip-path="url(#clip380)" d="M53.7467 188.253 L61.3856 188.253 L61.3856 161.887 L53.0754 163.554 L53.0754 159.295 L61.3393 157.628 L66.0152 157.628 L66.0152 188.253 L73.654 188.253 L73.654 192.188 L53.7467 192.188 L53.7467 188.253 Z" fill="#000000" fill-rule="nonzero" fill-opacity="1" /><path clip-path="url(#clip380)" d="M83.0984 186.309 L87.9827 186.309 L87.9827 192.188 L83.0984 192.188 L83.0984 186.309 Z" fill="#000000" fill-rule="nonzero" fill-opacity="1" /><path clip-path="url(#clip380)" d="M108.168 160.707 Q104.557 160.707 102.728 164.272 Q100.922 167.813 100.922 174.943 Q100.922 182.049 102.728 185.614 Q104.557 189.156 108.168 189.156 Q111.802 189.156 113.608 185.614 Q115.436 182.049 115.436 174.943 Q115.436 167.813 113.608 164.272 Q111.802 160.707 108.168 160.707 M108.168 157.003 Q113.978 157.003 117.033 161.61 Q120.112 166.193 120.112 174.943 Q120.112 183.67 117.033 188.276 Q113.978 192.86 108.168 192.86 Q102.358 192.86 99.2789 188.276 Q96.2234 183.67 96.2234 174.943 Q96.2234 166.193 99.2789 161.61 Q102.358 157.003 108.168 157.003 Z" fill="#000000" fill-rule="nonzero" fill-opacity="1" /><path clip-path="url(#clip380)" d="M138.33 160.707 Q134.719 160.707 132.89 164.272 Q131.084 167.813 131.084 174.943 Q131.084 182.049 132.89 185.614 Q134.719 189.156 138.33 189.156 Q141.964 189.156 143.769 185.614 Q145.598 182.049 145.598 174.943 Q145.598 167.813 143.769 164.272 Q141.964 160.707 138.33 160.707 M138.33 157.003 Q144.14 157.003 147.195 161.61 Q150.274 166.193 150.274 174.943 Q150.274 183.67 147.195 188.276 Q144.14 192.86 138.33 192.86 Q132.519 192.86 129.441 188.276 Q126.385 183.67 126.385 174.943 Q126.385 166.193 129.441 161.61 Q132.519 157.003 138.33 157.003 Z" fill="#000000" fill-rule="nonzero" fill-opacity="1" /><path clip-path="url(#clip380)" d="M894.766 17.6457 Q885.854 17.6457 880.588 24.2892 Q875.362 30.9327 875.362 42.3968 Q875.362 53.8203 880.588 60.4638 Q885.854 67.1073 894.766 67.1073 Q903.678 67.1073 908.863 60.4638 Q914.089 53.8203 914.089 42.3968 Q914.089 30.9327 908.863 24.2892 Q903.678 17.6457 894.766 17.6457 M894.766 11.0023 Q907.486 11.0023 915.101 19.5497 Q922.717 28.0566 922.717 42.3968 Q922.717 56.6965 915.101 65.2439 Q907.486 73.7508 894.766 73.7508 Q882.005 73.7508 874.349 65.2439 Q866.734 56.737 866.734 42.3968 Q866.734 28.0566 874.349 19.5497 Q882.005 11.0023 894.766 11.0023 Z" fill="#000000" fill-rule="nonzero" fill-opacity="1" /><path clip-path="url(#clip380)" d="M943.701 18.8205 L943.701 65.8515 L953.585 65.8515 Q966.102 65.8515 971.895 60.1802 Q977.728 54.509 977.728 42.2752 Q977.728 30.1225 971.895 24.4918 Q966.102 18.8205 953.585 18.8205 L943.701 18.8205 M935.518 12.096 L952.329 12.096 Q969.91 12.096 978.133 19.4281 Q986.357 26.7198 986.357 42.2752 Q986.357 57.9117 978.093 65.2439 Q969.829 72.576 952.329 72.576 L935.518 72.576 L935.518 12.096 Z" fill="#000000" fill-rule="nonzero" fill-opacity="1" /><path clip-path="url(#clip380)" d="M1046.07 49.7694 Q1037.03 49.7694 1033.55 51.8354 Q1030.07 53.9013 1030.07 58.8839 Q1030.07 62.8538 1032.66 65.2034 Q1035.29 67.5124 1039.79 67.5124 Q1045.99 67.5124 1049.71 63.1374 Q1053.48 58.7219 1053.48 51.4303 L1053.48 49.7694 L1046.07 49.7694 M1060.93 46.6907 L1060.93 72.576 L1053.48 72.576 L1053.48 65.6895 Q1050.93 69.8214 1047.12 71.8063 Q1043.31 73.7508 1037.8 73.7508 Q1030.84 73.7508 1026.7 69.8619 Q1022.61 65.9325 1022.61 59.3701 Q1022.61 51.7138 1027.72 47.825 Q1032.86 43.9361 1043.03 43.9361 L1053.48 43.9361 L1053.48 43.2069 Q1053.48 38.0623 1050.08 35.2672 Q1046.72 32.4315 1040.6 32.4315 Q1036.71 32.4315 1033.02 33.3632 Q1029.34 34.295 1025.93 36.1584 L1025.93 29.2718 Q1030.03 27.692 1033.87 26.9223 Q1037.72 26.1121 1041.37 26.1121 Q1051.21 26.1121 1056.07 31.2163 Q1060.93 36.3204 1060.93 46.6907 Z" fill="#000000" fill-rule="nonzero" fill-opacity="1" /><path clip-path="url(#clip380)" d="M1099.26 9.54393 L1099.26 15.7418 L1092.13 15.7418 Q1088.12 15.7418 1086.54 17.3622 Q1085 18.9825 1085 23.1955 L1085 27.2059 L1097.27 27.2059 L1097.27 32.9987 L1085 32.9987 L1085 72.576 L1077.5 72.576 L1077.5 32.9987 L1070.37 32.9987 L1070.37 27.2059 L1077.5 27.2059 L1077.5 24.0462 Q1077.5 16.471 1081.03 13.0277 Q1084.55 9.54393 1092.21 9.54393 L1099.26 9.54393 Z" fill="#000000" fill-rule="nonzero" fill-opacity="1" /><path clip-path="url(#clip380)" d="M1111.41 14.324 L1111.41 27.2059 L1126.76 27.2059 L1126.76 32.9987 L1111.41 32.9987 L1111.41 57.6282 Q1111.41 63.1779 1112.91 64.7578 Q1114.45 66.3376 1119.1 66.3376 L1126.76 66.3376 L1126.76 72.576 L1119.1 72.576 Q1110.48 72.576 1107.2 69.3758 Q1103.91 66.1351 1103.91 57.6282 L1103.91 32.9987 L1098.45 32.9987 L1098.45 27.2059 L1103.91 27.2059 L1103.91 14.324 L1111.41 14.324 Z" fill="#000000" fill-rule="nonzero" fill-opacity="1" /><path clip-path="url(#clip380)" d="M1175.37 48.0275 L1175.37 51.6733 L1141.1 51.6733 Q1141.59 59.3701 1145.72 63.421 Q1149.89 67.4314 1157.3 67.4314 Q1161.6 67.4314 1165.61 66.3781 Q1169.66 65.3249 1173.63 63.2184 L1173.63 70.267 Q1169.62 71.9684 1165.41 72.8596 Q1161.19 73.7508 1156.86 73.7508 Q1146 73.7508 1139.64 67.4314 Q1133.32 61.1119 1133.32 50.3365 Q1133.32 39.1965 1139.32 32.6746 Q1145.35 26.1121 1155.56 26.1121 Q1164.72 26.1121 1170.02 32.0264 Q1175.37 37.9003 1175.37 48.0275 M1167.92 45.84 Q1167.84 39.7232 1164.48 36.0774 Q1161.15 32.4315 1155.64 32.4315 Q1149.41 32.4315 1145.64 35.9558 Q1141.91 39.4801 1141.34 45.8805 L1167.92 45.84 Z" fill="#000000" fill-rule="nonzero" fill-opacity="1" /><path clip-path="url(#clip380)" d="M1213.9 34.1734 Q1212.64 33.4443 1211.14 33.1202 Q1209.68 32.7556 1207.9 32.7556 Q1201.58 32.7556 1198.18 36.8875 Q1194.82 40.9789 1194.82 48.6757 L1194.82 72.576 L1187.32 72.576 L1187.32 27.2059 L1194.82 27.2059 L1194.82 34.2544 Q1197.17 30.1225 1200.93 28.1376 Q1204.7 26.1121 1210.09 26.1121 Q1210.86 26.1121 1211.79 26.2337 Q1212.72 26.3147 1213.86 26.5172 L1213.9 34.1734 Z" fill="#000000" fill-rule="nonzero" fill-opacity="1" /><path clip-path="url(#clip380)" d="M1280.74 28.9478 L1280.74 35.9153 Q1277.58 34.1734 1274.38 33.3227 Q1271.22 32.4315 1267.98 32.4315 Q1260.72 32.4315 1256.71 37.0496 Q1252.7 41.6271 1252.7 49.9314 Q1252.7 58.2358 1256.71 62.8538 Q1260.72 67.4314 1267.98 67.4314 Q1271.22 67.4314 1274.38 66.5807 Q1277.58 65.6895 1280.74 63.9476 L1280.74 70.8341 Q1277.62 72.2924 1274.25 73.0216 Q1270.93 73.7508 1267.17 73.7508 Q1256.92 73.7508 1250.88 67.3098 Q1244.84 60.8689 1244.84 49.9314 Q1244.84 38.832 1250.92 32.472 Q1257.04 26.1121 1267.65 26.1121 Q1271.09 26.1121 1274.38 26.8413 Q1277.66 27.5299 1280.74 28.9478 Z" fill="#000000" fill-rule="nonzero" fill-opacity="1" /><path clip-path="url(#clip380)" d="M1314.32 49.7694 Q1305.28 49.7694 1301.8 51.8354 Q1298.32 53.9013 1298.32 58.8839 Q1298.32 62.8538 1300.91 65.2034 Q1303.54 67.5124 1308.04 67.5124 Q1314.24 67.5124 1317.96 63.1374 Q1321.73 58.7219 1321.73 51.4303 L1321.73 49.7694 L1314.32 49.7694 M1329.18 46.6907 L1329.18 72.576 L1321.73 72.576 L1321.73 65.6895 Q1319.18 69.8214 1315.37 71.8063 Q1311.56 73.7508 1306.05 73.7508 Q1299.09 73.7508 1294.95 69.8619 Q1290.86 65.9325 1290.86 59.3701 Q1290.86 51.7138 1295.97 47.825 Q1301.11 43.9361 1311.28 43.9361 L1321.73 43.9361 L1321.73 43.2069 Q1321.73 38.0623 1318.33 35.2672 Q1314.97 32.4315 1308.85 32.4315 Q1304.96 32.4315 1301.27 33.3632 Q1297.59 34.295 1294.18 36.1584 L1294.18 29.2718 Q1298.28 27.692 1302.12 26.9223 Q1305.97 26.1121 1309.62 26.1121 Q1319.46 26.1121 1324.32 31.2163 Q1329.18 36.3204 1329.18 46.6907 Z" fill="#000000" fill-rule="nonzero" fill-opacity="1" /><path clip-path="url(#clip380)" d="M1344.54 9.54393 L1351.99 9.54393 L1351.99 72.576 L1344.54 72.576 L1344.54 9.54393 Z" fill="#000000" fill-rule="nonzero" fill-opacity="1" /><path clip-path="url(#clip380)" d="M1367.59 27.2059 L1375.04 27.2059 L1375.04 72.576 L1367.59 72.576 L1367.59 27.2059 M1367.59 9.54393 L1375.04 9.54393 L1375.04 18.9825 L1367.59 18.9825 L1367.59 9.54393 Z" fill="#000000" fill-rule="nonzero" fill-opacity="1" /><path clip-path="url(#clip380)" d="M1423.21 49.9314 Q1423.21 41.7081 1419.8 37.0496 Q1416.44 32.3505 1410.53 32.3505 Q1404.61 32.3505 1401.21 37.0496 Q1397.85 41.7081 1397.85 49.9314 Q1397.85 58.1548 1401.21 62.8538 Q1404.61 67.5124 1410.53 67.5124 Q1416.44 67.5124 1419.8 62.8538 Q1423.21 58.1548 1423.21 49.9314 M1397.85 34.0924 Q1400.2 30.0415 1403.76 28.0971 Q1407.37 26.1121 1412.35 26.1121 Q1420.61 26.1121 1425.76 32.6746 Q1430.94 39.2371 1430.94 49.9314 Q1430.94 60.6258 1425.76 67.1883 Q1420.61 73.7508 1412.35 73.7508 Q1407.37 73.7508 1403.76 71.8063 Q1400.2 69.8214 1397.85 65.7705 L1397.85 72.576 L1390.35 72.576 L1390.35 9.54393 L1397.85 9.54393 L1397.85 34.0924 Z" fill="#000000" fill-rule="nonzero" fill-opacity="1" /><path clip-path="url(#clip380)" d="M1469.59 34.1734 Q1468.33 33.4443 1466.83 33.1202 Q1465.38 32.7556 1463.59 32.7556 Q1457.27 32.7556 1453.87 36.8875 Q1450.51 40.9789 1450.51 48.6757 L1450.51 72.576 L1443.02 72.576 L1443.02 27.2059 L1450.51 27.2059 L1450.51 34.2544 Q1452.86 30.1225 1456.63 28.1376 Q1460.39 26.1121 1465.78 26.1121 Q1466.55 26.1121 1467.48 26.2337 Q1468.41 26.3147 1469.55 26.5172 L1469.59 34.1734 Z" fill="#000000" fill-rule="nonzero" fill-opacity="1" /><path clip-path="url(#clip380)" d="M1498.03 49.7694 Q1488.99 49.7694 1485.51 51.8354 Q1482.03 53.9013 1482.03 58.8839 Q1482.03 62.8538 1484.62 65.2034 Q1487.25 67.5124 1491.75 67.5124 Q1497.95 67.5124 1501.67 63.1374 Q1505.44 58.7219 1505.44 51.4303 L1505.44 49.7694 L1498.03 49.7694 M1512.89 46.6907 L1512.89 72.576 L1505.44 72.576 L1505.44 65.6895 Q1502.89 69.8214 1499.08 71.8063 Q1495.27 73.7508 1489.76 73.7508 Q1482.8 73.7508 1478.66 69.8619 Q1474.57 65.9325 1474.57 59.3701 Q1474.57 51.7138 1479.68 47.825 Q1484.82 43.9361 1494.99 43.9361 L1505.44 43.9361 L1505.44 43.2069 Q1505.44 38.0623 1502.04 35.2672 Q1498.67 32.4315 1492.56 32.4315 Q1488.67 32.4315 1484.98 33.3632 Q1481.3 34.295 1477.89 36.1584 L1477.89 29.2718 Q1481.98 27.692 1485.83 26.9223 Q1489.68 26.1121 1493.33 26.1121 Q1503.17 26.1121 1508.03 31.2163 Q1512.89 36.3204 1512.89 46.6907 Z" fill="#000000" fill-rule="nonzero" fill-opacity="1" /><path clip-path="url(#clip380)" d="M1535.62 14.324 L1535.62 27.2059 L1550.97 27.2059 L1550.97 32.9987 L1535.62 32.9987 L1535.62 57.6282 Q1535.62 63.1779 1537.12 64.7578 Q1538.66 66.3376 1543.32 66.3376 L1550.97 66.3376 L1550.97 72.576 L1543.32 72.576 Q1534.69 72.576 1531.41 69.3758 Q1528.12 66.1351 1528.12 57.6282 L1528.12 32.9987 L1522.66 32.9987 L1522.66 27.2059 L1528.12 27.2059 L1528.12 14.324 L1535.62 14.324 Z" fill="#000000" fill-rule="nonzero" fill-opacity="1" /><path clip-path="url(#clip380)" d="M1560.77 27.2059 L1568.23 27.2059 L1568.23 72.576 L1560.77 72.576 L1560.77 27.2059 M1560.77 9.54393 L1568.23 9.54393 L1568.23 18.9825 L1560.77 18.9825 L1560.77 9.54393 Z" fill="#000000" fill-rule="nonzero" fill-opacity="1" /><path clip-path="url(#clip380)" d="M1601.41 32.4315 Q1595.41 32.4315 1591.93 37.1306 Q1588.44 41.7891 1588.44 49.9314 Q1588.44 58.0738 1591.89 62.7728 Q1595.37 67.4314 1601.41 67.4314 Q1607.36 67.4314 1610.84 62.7323 Q1614.33 58.0333 1614.33 49.9314 Q1614.33 41.8701 1610.84 37.1711 Q1607.36 32.4315 1601.41 32.4315 M1601.41 26.1121 Q1611.13 26.1121 1616.68 32.4315 Q1622.23 38.7509 1622.23 49.9314 Q1622.23 61.0714 1616.68 67.4314 Q1611.13 73.7508 1601.41 73.7508 Q1591.64 73.7508 1586.09 67.4314 Q1580.58 61.0714 1580.58 49.9314 Q1580.58 38.7509 1586.09 32.4315 Q1591.64 26.1121 1601.41 26.1121 Z" fill="#000000" fill-rule="nonzero" fill-opacity="1" /><path clip-path="url(#clip380)" d="M1672.3 45.1919 L1672.3 72.576 L1664.84 72.576 L1664.84 45.4349 Q1664.84 38.994 1662.33 35.7938 Q1659.82 32.5936 1654.8 32.5936 Q1648.76 32.5936 1645.28 36.4419 Q1641.79 40.2903 1641.79 46.9338 L1641.79 72.576 L1634.3 72.576 L1634.3 27.2059 L1641.79 27.2059 L1641.79 34.2544 Q1644.47 30.163 1648.07 28.1376 Q1651.72 26.1121 1656.46 26.1121 Q1664.28 26.1121 1668.29 30.9732 Q1672.3 35.7938 1672.3 45.1919 Z" fill="#000000" fill-rule="nonzero" fill-opacity="1" /><polyline clip-path="url(#clip381)" style="stroke:#009af9; stroke-linecap:round; stroke-linejoin:round; stroke-width:4; stroke-opacity:1; fill:none" points="247.59,1440.21 259.853,1439.95 263.94,1439.86 268.028,1439.77 272.116,1439.68 280.291,1439.5 284.379,1439.4 288.467,1439.31 292.554,1439.21 296.642,1439.12 300.73,1439.02 312.993,1438.72 317.08,1438.62 321.168,1438.52 325.256,1438.42 329.344,1438.31 333.431,1438.21 337.519,1438.1 341.607,1437.99 345.694,1437.88 349.782,1437.77 357.957,1437.55 366.133,1437.32 370.221,1437.21 374.308,1437.09 378.396,1436.98 382.484,1436.86 386.571,1436.74 394.747,1436.49 398.834,1436.37 407.01,1436.12 411.098,1435.99 419.273,1435.73 423.361,1435.6 427.448,1435.47 439.712,1435.06 443.799,1434.92 447.887,1434.78 456.062,1434.5 460.15,1434.36 468.325,1434.07 472.413,1433.92 476.501,1433.77 480.589,1433.62 484.676,1433.47 488.764,1433.31 496.939,1433 501.027,1432.84 505.115,1432.68 509.202,1432.52 517.378,1432.19 521.466,1432.02 525.553,1431.85 529.641,1431.68 533.729,1431.51 537.816,1431.34 541.904,1431.16 545.992,1430.98 554.167,1430.62 558.255,1430.44 562.343,1430.26 566.43,1430.07 570.518,1429.88 574.606,1429.69 578.693,1429.5 582.781,1429.31 586.869,1429.11 590.956,1428.91 595.044,1428.71 599.132,1428.51 603.22,1428.31 607.307,1428.1 611.395,1427.89 615.483,1427.68 619.57,1427.47 623.658,1427.26 627.746,1427.04 631.833,1426.82 635.921,1426.6 640.009,1426.38 644.097,1426.15 652.272,1425.7 656.36,1425.46 660.447,1425.23 664.535,1424.99 668.623,1424.75 672.711,1424.51 676.798,1424.27 680.886,1424.02 684.974,1423.77 689.061,1423.52 693.149,1423.27 697.237,1423.01 701.324,1422.75 705.412,1422.49 709.5,1422.22 713.588,1421.96 717.675,1421.69 721.763,1421.42 725.851,1421.14 729.938,1420.86 734.026,1420.58 738.114,1420.3 742.201,1420.01 746.289,1419.72 750.377,1419.43 754.465,1419.13 758.552,1418.84 762.64,1418.54 766.728,1418.23 770.815,1417.92 774.903,1417.61 778.991,1417.3 783.078,1416.98 787.166,1416.66 791.254,1416.34 795.342,1416.02 799.429,1415.69 803.517,1415.35 807.605,1415.02 811.692,1414.68 815.78,1414.33 819.868,1413.99 823.955,1413.64 828.043,1413.29 832.131,1412.93 836.219,1412.57 840.306,1412.2 844.394,1411.84 848.482,1411.46 852.569,1411.09 856.657,1410.71 860.745,1410.33 864.832,1409.94 868.92,1409.55 873.008,1409.16 877.096,1408.76 881.183,1408.36 885.271,1407.95 889.359,1407.54 893.446,1407.12 897.534,1406.7 901.622,1406.28 905.71,1405.85 909.797,1405.42 913.885,1404.99 917.973,1404.55 922.06,1404.1 926.148,1403.65 930.236,1403.2 934.323,1402.74 938.411,1402.28 942.499,1401.81 946.587,1401.34 950.674,1400.86 954.762,1400.38 958.85,1399.89 962.937,1399.4 967.025,1398.91 971.113,1398.4 975.2,1397.9 979.288,1397.39 983.376,1396.87 987.464,1396.35 991.551,1395.82 995.639,1395.29 999.727,1394.75 1003.81,1394.21 1007.9,1393.66 1011.99,1393.1 1016.08,1392.54 1020.17,1391.98 1024.25,1391.41 1028.34,1390.83 1032.43,1390.25 1036.52,1389.66 1040.6,1389.07 1044.69,1388.47 1048.78,1387.86 1052.87,1387.25 1056.95,1386.63 1061.04,1386 1065.13,1385.37 1069.22,1384.74 1073.31,1384.09 1077.39,1383.44 1081.48,1382.78 1085.57,1382.12 1089.66,1381.45 1093.74,1380.77 1097.83,1380.09 1101.92,1379.4 1106.01,1378.7 1110.09,1378 1114.18,1377.29 1118.27,1376.57 1122.36,1375.84 1126.45,1375.11 1130.53,1374.37 1134.62,1373.62 1138.71,1372.86 1142.8,1372.1 1146.88,1371.33 1150.97,1370.55 1155.06,1369.77 1159.15,1368.97 1163.23,1368.17 1167.32,1367.36 1171.41,1366.54 1175.5,1365.71 1179.59,1364.88 1183.67,1364.04 1187.76,1363.18 1191.85,1362.32 1195.94,1361.45 1200.02,1360.58 1204.11,1359.69 1208.2,1358.79 1212.29,1357.89 1216.37,1356.98 1220.46,1356.05 1224.55,1355.12 1228.64,1354.18 1232.73,1353.23 1236.81,1352.27 1240.9,1351.3 1244.99,1350.32 1249.08,1349.33 1253.16,1348.33 1257.25,1347.32 1261.34,1346.3 1265.43,1345.27 1269.51,1344.23 1273.6,1343.18 1277.69,1342.12 1281.78,1341.04 1285.87,1339.96 1289.95,1338.87 1294.04,1337.76 1298.13,1336.65 1302.22,1335.52 1306.3,1334.38 1310.39,1333.23 1314.48,1332.07 1318.57,1330.9 1322.66,1329.71 1326.74,1328.51 1330.83,1327.31 1334.92,1326.09 1339.01,1324.85 1343.09,1323.61 1347.18,1322.35 1351.27,1321.08 1355.36,1319.79 1359.44,1318.5 1363.53,1317.19 1367.62,1315.86 1371.71,1314.53 1375.8,1313.18 1379.88,1311.82 1383.97,1310.44 1388.06,1309.05 1392.15,1307.64 1396.23,1306.23 1400.32,1304.79 1404.41,1303.35 1408.5,1301.88 1412.58,1300.41 1416.67,1298.92 1420.76,1297.41 1424.85,1295.89 1428.94,1294.35 1433.02,1292.8 1437.11,1291.23 1441.2,1289.65 1445.29,1288.05 1449.37,1286.43 1453.46,1284.8 1457.55,1283.15 1461.64,1281.49 1465.72,1279.81 1469.81,1278.11 1473.9,1276.39 1477.99,1274.66 1482.08,1272.91 1486.16,1271.14 1490.25,1269.36 1494.34,1267.55 1498.43,1265.73 1502.51,1263.89 1506.6,1262.03 1510.69,1260.16 1514.78,1258.26 1518.86,1256.35 1522.95,1254.41 1527.04,1252.46 1531.13,1250.49 1535.22,1248.49 1539.3,1246.48 1543.39,1244.45 1547.48,1242.39 1551.57,1240.32 1555.65,1238.22 1559.74,1236.11 1563.83,1233.97 1567.92,1231.81 1572,1229.63 1576.09,1227.43 1580.18,1225.2 1584.27,1222.96 1588.36,1220.69 1592.44,1218.39 1596.53,1216.08 1600.62,1213.74 1604.71,1211.38 1608.79,1208.99 1612.88,1206.58 1616.97,1204.15 1621.06,1201.69 1625.15,1199.2 1629.23,1196.69 1633.32,1194.16 1637.41,1191.6 1641.5,1189.02 1645.58,1186.41 1649.67,1183.77 1653.76,1181.11 1657.85,1178.42 1661.93,1175.7 1666.02,1172.95 1670.11,1170.18 1674.2,1167.38 1678.29,1164.55 1682.37,1161.7 1686.46,1158.81 1690.55,1155.9 1694.64,1152.95 1698.72,1149.98 1702.81,1146.98 1706.9,1143.94 1710.99,1140.88 1715.07,1137.78 1719.16,1134.66 1723.25,1131.5 1727.34,1128.31 1731.43,1125.09 1735.51,1121.84 1739.6,1118.55 1743.69,1115.23 1747.78,1111.88 1751.86,1108.5 1755.95,1105.08 1760.04,1101.62 1764.13,1098.13 1768.21,1094.61 1772.3,1091.05 1776.39,1087.45 1780.48,1083.82 1784.57,1080.15 1788.65,1076.45 1792.74,1072.71 1796.83,1068.93 1800.92,1065.11 1805,1061.25 1809.09,1057.36 1813.18,1053.42 1817.27,1049.45 1821.35,1045.44 1825.44,1041.38 1829.53,1037.29 1833.62,1033.15 1837.71,1028.97 1841.79,1024.76 1845.88,1020.49 1849.97,1016.19 1854.06,1011.84 1858.14,1007.45 1862.23,1003.01 1866.32,998.534 1870.41,994.009 1874.49,989.438 1878.58,984.822 1882.67,980.159 1886.76,975.449 1890.85,970.692 1894.93,965.887 1899.02,961.033 1903.11,956.131 1907.2,951.18 1911.28,946.179 1915.37,941.127 1919.46,936.025 1923.55,930.872 1927.63,925.666 1931.72,920.409 1935.81,915.099 1939.9,909.735 1943.99,904.317 1948.07,898.845 1952.16,893.318 1956.25,887.735 1960.34,882.097 1964.42,876.401 1968.51,870.648 1972.6,864.838 1976.69,858.969 1980.78,853.041 1984.86,847.054 1988.95,841.006 1993.04,834.898 1997.13,828.728 2001.21,822.496 2005.3,816.202 2009.39,809.844 2013.48,803.423 2017.56,796.937 2021.65,790.385 2025.74,783.768 2029.83,777.084 2033.92,770.334 2038,763.515 2042.09,756.628 2046.18,749.671 2050.27,742.645 2054.35,735.548 2058.44,728.38 2062.53,721.14 2066.62,713.827 2070.7,706.44 2074.79,698.979 2078.88,691.443 2082.97,683.832 2087.06,676.144 2091.14,668.379 2095.23,660.535 2099.32,652.613 2103.41,644.611 2107.49,636.529 2111.58,628.366 2115.67,620.12 2119.76,611.792 2123.84,603.38 2127.93,594.883 2132.02,586.301 2136.11,577.633 2140.2,568.878 2144.28,560.035 2148.37,551.102 2152.46,542.08 2156.55,532.968 2160.63,523.764 2164.72,514.467 2168.81,505.077 2172.9,495.592 2176.98,486.012 2181.07,476.336 2185.16,466.563 2189.25,456.691 2193.34,446.72 2197.42,436.649 2201.51,426.477 2205.6,416.203 2209.69,405.825 2213.77,395.343 2217.86,384.755 2221.95,374.062 2226.04,363.26 2230.12,352.351 2234.21,341.331 2238.3,330.201 2242.39,318.959 2246.48,307.604 2250.56,296.135 2254.65,284.55 2258.74,272.849 2262.83,261.031 2266.91,249.094 2271,237.036 2275.09,224.858 2279.18,212.557 2283.26,200.133 2287.35,187.584 2291.44,174.908 "/>
<polyline clip-path="url(#clip381)" style="stroke:#e26f46; stroke-linecap:round; stroke-linejoin:round; stroke-width:4; stroke-opacity:1; fill:none" points="247.59,1429.92 259.853,1445.26 263.94,1436.2 268.028,1436.84 272.116,1445.05 280.291,1438.61 284.379,1440.9 288.467,1423.78 292.554,1435.48 296.642,1439.51 300.73,1435 312.993,1427.84 317.08,1434.27 321.168,1442.58 325.256,1442.71 329.344,1412.73 333.431,1428.46 337.519,1435.8 341.607,1412.15 345.694,1439.51 349.782,1431.79 357.957,1429.91 366.133,1447.87 370.221,1412.97 374.308,1428.69 378.396,1432.33 382.484,1426.84 386.571,1434.56 394.747,1424.56 398.834,1429.9 407.01,1434.52 411.098,1430.2 419.273,1440.79 423.361,1420.28 427.448,1444.65 439.712,1444.26 443.799,1428.25 447.887,1418.74 456.062,1443.32 460.15,1446.54 468.325,1432.01 472.413,1424.25 476.501,1427.07 480.589,1445.14 484.676,1426.79 488.764,1423.79 496.939,1422.17 501.027,1424.85 505.115,1433.46 509.202,1429.11 517.378,1423.32 521.466,1434.89 525.553,1430.71 529.641,1419.95 533.729,1429.17 537.816,1443.66 541.904,1427.36 545.992,1433.09 554.167,1416 558.255,1433.99 562.343,1425.97 566.43,1427.57 570.518,1421.93 574.606,1422.48 578.693,1421.67 582.781,1438.1 586.869,1422.51 590.956,1444.15 595.044,1434.13 599.132,1431.32 603.22,1416.99 607.307,1417.26 611.395,1426.23 615.483,1428.09 619.57,1421.93 623.658,1416.55 627.746,1422.21 631.833,1428.21 635.921,1435.25 640.009,1418.59 644.097,1418.34 652.272,1420.04 656.36,1409.95 660.447,1429.24 664.535,1429.96 668.623,1411.61 672.711,1408.4 676.798,1431.83 680.886,1434.45 684.974,1416 689.061,1443.37 693.149,1439.04 697.237,1417.34 701.324,1430.79 705.412,1410.98 709.5,1422.04 713.588,1434.2 717.675,1427.32 721.763,1421 725.851,1431.49 729.938,1425.34 734.026,1423.73 738.114,1411.85 742.201,1424.52 746.289,1419.36 750.377,1421.33 754.465,1411.96 758.552,1419.19 762.64,1430.01 766.728,1411.48 770.815,1423.61 774.903,1428.99 778.991,1390.04 783.078,1421.89 787.166,1420.21 791.254,1432.26 795.342,1425.72 799.429,1414.02 803.517,1425.91 807.605,1411.4 811.692,1422.2 815.78,1415.21 819.868,1406.03 823.955,1420.32 828.043,1397.02 832.131,1426.8 836.219,1400.87 840.306,1389.79 844.394,1417.95 848.482,1398.94 852.569,1418.64 856.657,1419.48 860.745,1419.81 864.832,1389.41 868.92,1405.51 873.008,1396.4 877.096,1417.19 881.183,1395.65 885.271,1410.7 889.359,1416.81 893.446,1377.42 897.534,1399.42 901.622,1408.45 905.71,1423.37 909.797,1410.46 913.885,1384.72 917.973,1409.98 922.06,1425.98 926.148,1381.88 930.236,1381.9 934.323,1415.66 938.411,1382.21 942.499,1404.31 946.587,1409.34 950.674,1437.06 954.762,1393.7 958.85,1391.35 962.937,1390.19 967.025,1400.58 971.113,1406.82 975.2,1415.19 979.288,1395.56 983.376,1410.29 987.464,1420.07 991.551,1408.77 995.639,1399.18 999.727,1385.75 1003.81,1398.09 1007.9,1404.24 1011.99,1388.93 1016.08,1389.52 1020.17,1389.88 1024.25,1355.59 1028.34,1409.59 1032.43,1389.81 1036.52,1397.37 1040.6,1392.33 1044.69,1404.67 1048.78,1399.36 1052.87,1419.56 1056.95,1387.32 1061.04,1401.51 1065.13,1363.96 1069.22,1368.6 1073.31,1381.5 1077.39,1394.92 1081.48,1366.83 1085.57,1362 1089.66,1405.87 1093.74,1385.56 1097.83,1379.9 1101.92,1364.77 1106.01,1393.39 1110.09,1390.8 1114.18,1363.58 1118.27,1375.84 1122.36,1361.57 1126.45,1375.64 1130.53,1369.24 1134.62,1379.35 1138.71,1361.59 1142.8,1364.37 1146.88,1372.54 1150.97,1380.18 1155.06,1368.18 1159.15,1392.42 1163.23,1364.59 1167.32,1361.69 1171.41,1375.21 1175.5,1362.44 1179.59,1364.07 1183.67,1373.24 1187.76,1359.42 1191.85,1348.92 1195.94,1369.57 1200.02,1339.37 1204.11,1361.21 1208.2,1366.6 1212.29,1359.15 1216.37,1366.31 1220.46,1358.86 1224.55,1368.79 1228.64,1348.88 1232.73,1341.32 1236.81,1370.41 1240.9,1374.14 1244.99,1351.16 1249.08,1339.42 1253.16,1348.72 1257.25,1352.11 1261.34,1347.4 1265.43,1352.3 1269.51,1340.58 1273.6,1316.7 1277.69,1342.09 1281.78,1358.62 1285.87,1343.75 1289.95,1339.25 1294.04,1325.95 1298.13,1369.35 1302.22,1310.25 1306.3,1326.29 1310.39,1340.88 1314.48,1346.35 1318.57,1364.14 1322.66,1318.57 1326.74,1327.3 1330.83,1336.77 1334.92,1335.35 1339.01,1288.94 1343.09,1323.84 1347.18,1308.18 1351.27,1333.65 1355.36,1321.86 1359.44,1329.28 1363.53,1322.54 1367.62,1332.6 1371.71,1317.56 1375.8,1310.4 1379.88,1312.4 1383.97,1322.97 1388.06,1295.66 1392.15,1310.92 1396.23,1292.68 1400.32,1303.2 1404.41,1289.04 1408.5,1310.67 1412.58,1311.32 1416.67,1292.33 1420.76,1301.73 1424.85,1294.69 1428.94,1301.49 1433.02,1317.56 1437.11,1299.41 1441.2,1300.24 1445.29,1277.75 1449.37,1285.94 1453.46,1277.81 1457.55,1284.16 1461.64,1260.15 1465.72,1284.45 1469.81,1265.71 1473.9,1262.24 1477.99,1283.31 1482.08,1266.33 1486.16,1289.98 1490.25,1277.36 1494.34,1253.8 1498.43,1265.19 1502.51,1240.43 1506.6,1278.85 1510.69,1244.93 1514.78,1237.26 1518.86,1255.71 1522.95,1281.8 1527.04,1266.32 1531.13,1260.09 1535.22,1236.4 1539.3,1244.54 1543.39,1254.32 1547.48,1260.85 1551.57,1233.53 1555.65,1256.58 1559.74,1218.24 1563.83,1212.98 1567.92,1236.67 1572,1210.57 1576.09,1238.54 1580.18,1209.29 1584.27,1229.32 1588.36,1244.07 1592.44,1219.7 1596.53,1223.06 1600.62,1214.78 1604.71,1211.55 1608.79,1232.75 1612.88,1203.52 1616.97,1204.78 1621.06,1215.9 1625.15,1202.47 1629.23,1190.79 1633.32,1223.68 1637.41,1203.02 1641.5,1181.34 1645.58,1191.89 1649.67,1181.29 1653.76,1197.55 1657.85,1178.72 1661.93,1164.08 1666.02,1167.42 1670.11,1144.21 1674.2,1158.48 1678.29,1138.74 1682.37,1171.75 1686.46,1161.92 1690.55,1162.03 1694.64,1160.16 1698.72,1154.23 1702.81,1171.78 1706.9,1134.13 1710.99,1151.32 1715.07,1146.1 1719.16,1133.31 1723.25,1120.79 1727.34,1136.81 1731.43,1130.98 1735.51,1102.67 1739.6,1142.4 1743.69,1128.77 1747.78,1094.22 1751.86,1118.22 1755.95,1108.64 1760.04,1131.28 1764.13,1101.7 1768.21,1085.11 1772.3,1076.76 1776.39,1068.54 1780.48,1076.48 1784.57,1111.6 1788.65,1065.56 1792.74,1069.13 1796.83,1061.85 1800.92,1055.92 1805,1058.75 1809.09,1052.51 1813.18,1053.77 1817.27,1053.08 1821.35,1045.65 1825.44,1061.43 1829.53,1041.89 1833.62,1015.66 1837.71,1032.68 1841.79,1041.94 1845.88,1007.58 1849.97,1001.19 1854.06,985.477 1858.14,1019.17 1862.23,974.374 1866.32,993.388 1870.41,992.659 1874.49,1005.79 1878.58,996.498 1882.67,978.384 1886.76,966.102 1890.85,982.558 1894.93,971.939 1899.02,970.696 1903.11,932.216 1907.2,939.552 1911.28,968.234 1915.37,939.137 1919.46,946.101 1923.55,916.978 1927.63,931.652 1931.72,919.393 1935.81,899.909 1939.9,919.734 1943.99,903.539 1948.07,897.847 1952.16,897.938 1956.25,880.212 1960.34,885.331 1964.42,883.903 1968.51,885.938 1972.6,860.03 1976.69,858.183 1980.78,851.197 1984.86,844.146 1988.95,843.919 1993.04,850.759 1997.13,816.536 2001.21,832.904 2005.3,809.375 2009.39,801.566 2013.48,806.984 2017.56,777.62 2021.65,814.399 2025.74,772.596 2029.83,783.293 2033.92,771.829 2038,775.393 2042.09,770.416 2046.18,765.826 2050.27,730.713 2054.35,717.531 2058.44,738.842 2062.53,735.167 2066.62,698.576 2070.7,715.612 2074.79,719.523 2078.88,696.375 2082.97,692.151 2087.06,662.64 2091.14,702.661 2095.23,666.287 2099.32,661.629 2103.41,646.115 2107.49,648.801 2111.58,638.509 2115.67,589.551 2119.76,616.207 2123.84,587.38 2127.93,600.304 2132.02,592.2 2136.11,573.626 2140.2,591.585 2144.28,551.477 2148.37,534.818 2152.46,557.775 2156.55,532.57 2160.63,507.863 2164.72,531.225 2168.81,497.479 2172.9,509.217 2176.98,477.29 2181.07,473.74 2185.16,466.554 2189.25,441.455 2193.34,453.574 2197.42,436.556 2201.51,412.325 2205.6,415.6 2209.69,398.866 2213.77,378.444 2217.86,396.496 2221.95,372.88 2226.04,350.502 2230.12,364.212 2234.21,340.004 2238.3,345.766 2242.39,331.08 2246.48,300.587 2250.56,280.914 2254.65,296.059 2258.74,289.101 2262.83,233.756 2266.91,255.694 2271,246.21 2275.09,238.721 2279.18,203.592 2283.26,198.307 2287.35,185.694 2291.44,162.047 "/>
<path clip-path="url(#clip380)" d="M258.49 324.425 L788.146 324.425 L788.146 168.905 L258.49 168.905  Z" fill="#ffffff" fill-rule="evenodd" fill-opacity="1"/>
<polyline clip-path="url(#clip380)" style="stroke:#000000; stroke-linecap:round; stroke-linejoin:round; stroke-width:4; stroke-opacity:1; fill:none" points="258.49,324.425 788.146,324.425 788.146,168.905 258.49,168.905 258.49,324.425 "/>
<polyline clip-path="url(#clip380)" style="stroke:#009af9; stroke-linecap:round; stroke-linejoin:round; stroke-width:4; stroke-opacity:1; fill:none" points="282.562,220.745 426.994,220.745 "/>
<path clip-path="url(#clip380)" d="M451.066 203.465 L480.302 203.465 L480.302 207.4 L468.034 207.4 L468.034 238.025 L463.335 238.025 L463.335 207.4 L451.066 207.4 L451.066 203.465 Z" fill="#000000" fill-rule="nonzero" fill-opacity="1" /><path clip-path="url(#clip380)" d="M492.686 216.08 Q491.969 215.664 491.112 215.478 Q490.279 215.27 489.26 215.27 Q485.649 215.27 483.705 217.631 Q481.784 219.969 481.784 224.367 L481.784 238.025 L477.501 238.025 L477.501 212.099 L481.784 212.099 L481.784 216.127 Q483.126 213.766 485.279 212.631 Q487.432 211.474 490.51 211.474 Q490.95 211.474 491.483 211.543 Q492.015 211.59 492.663 211.705 L492.686 216.08 Z" fill="#000000" fill-rule="nonzero" fill-opacity="1" /><path clip-path="url(#clip380)" d="M496.714 227.793 L496.714 212.099 L500.973 212.099 L500.973 227.631 Q500.973 231.312 502.409 233.164 Q503.844 234.992 506.714 234.992 Q510.163 234.992 512.154 232.793 Q514.168 230.594 514.168 226.798 L514.168 212.099 L518.427 212.099 L518.427 238.025 L514.168 238.025 L514.168 234.043 Q512.617 236.404 510.557 237.562 Q508.52 238.696 505.811 238.696 Q501.344 238.696 499.029 235.918 Q496.714 233.14 496.714 227.793 M507.432 211.474 L507.432 211.474 Z" fill="#000000" fill-rule="nonzero" fill-opacity="1" /><path clip-path="url(#clip380)" d="M549.376 223.997 L549.376 226.08 L529.793 226.08 Q530.07 230.478 532.432 232.793 Q534.816 235.085 539.052 235.085 Q541.506 235.085 543.797 234.483 Q546.112 233.881 548.381 232.677 L548.381 236.705 Q546.089 237.677 543.681 238.187 Q541.274 238.696 538.797 238.696 Q532.594 238.696 528.959 235.085 Q525.348 231.474 525.348 225.316 Q525.348 218.951 528.774 215.224 Q532.223 211.474 538.057 211.474 Q543.288 211.474 546.32 214.853 Q549.376 218.21 549.376 223.997 M545.117 222.747 Q545.07 219.252 543.149 217.168 Q541.251 215.085 538.103 215.085 Q534.538 215.085 532.385 217.099 Q530.256 219.113 529.932 222.77 L545.117 222.747 Z" fill="#000000" fill-rule="nonzero" fill-opacity="1" /><path clip-path="url(#clip380)" d="M585.649 206.636 Q580.556 206.636 577.547 210.432 Q574.561 214.228 574.561 220.779 Q574.561 227.307 577.547 231.103 Q580.556 234.9 585.649 234.9 Q590.741 234.9 593.704 231.103 Q596.69 227.307 596.69 220.779 Q596.69 214.228 593.704 210.432 Q590.741 206.636 585.649 206.636 M585.649 202.84 Q592.917 202.84 597.269 207.724 Q601.621 212.585 601.621 220.779 Q601.621 228.951 597.269 233.835 Q592.917 238.696 585.649 238.696 Q578.357 238.696 573.982 233.835 Q569.63 228.974 569.63 220.779 Q569.63 212.585 573.982 207.724 Q578.357 202.84 585.649 202.84 Z" fill="#000000" fill-rule="nonzero" fill-opacity="1" /><path clip-path="url(#clip380)" d="M613.612 207.307 L613.612 234.182 L619.26 234.182 Q626.413 234.182 629.723 230.941 Q633.056 227.701 633.056 220.71 Q633.056 213.766 629.723 210.548 Q626.413 207.307 619.26 207.307 L613.612 207.307 M608.936 203.465 L618.542 203.465 Q628.588 203.465 633.287 207.654 Q637.987 211.821 637.987 220.71 Q637.987 229.645 633.264 233.835 Q628.542 238.025 618.542 238.025 L608.936 238.025 L608.936 203.465 Z" fill="#000000" fill-rule="nonzero" fill-opacity="1" /><polyline clip-path="url(#clip380)" style="stroke:#e26f46; stroke-linecap:round; stroke-linejoin:round; stroke-width:4; stroke-opacity:1; fill:none" points="282.562,272.585 426.994,272.585 "/>
<path clip-path="url(#clip380)" d="M451.066 255.305 L458.034 255.305 L466.853 278.823 L475.719 255.305 L482.686 255.305 L482.686 289.865 L478.126 289.865 L478.126 259.518 L469.214 283.221 L464.515 283.221 L455.603 259.518 L455.603 289.865 L451.066 289.865 L451.066 255.305 Z" fill="#000000" fill-rule="nonzero" fill-opacity="1" /><path clip-path="url(#clip380)" d="M513.959 275.837 L513.959 277.92 L494.376 277.92 Q494.654 282.318 497.015 284.633 Q499.399 286.925 503.635 286.925 Q506.089 286.925 508.381 286.323 Q510.696 285.721 512.964 284.517 L512.964 288.545 Q510.672 289.517 508.265 290.027 Q505.858 290.536 503.381 290.536 Q497.177 290.536 493.543 286.925 Q489.932 283.314 489.932 277.156 Q489.932 270.791 493.358 267.064 Q496.807 263.314 502.64 263.314 Q507.871 263.314 510.904 266.693 Q513.959 270.05 513.959 275.837 M509.7 274.587 Q509.654 271.092 507.733 269.008 Q505.834 266.925 502.686 266.925 Q499.122 266.925 496.969 268.939 Q494.839 270.953 494.515 274.61 L509.7 274.587 Z" fill="#000000" fill-rule="nonzero" fill-opacity="1" /><path clip-path="url(#clip380)" d="M532.732 276.832 Q527.57 276.832 525.58 278.013 Q523.589 279.193 523.589 282.041 Q523.589 284.309 525.07 285.652 Q526.575 286.971 529.145 286.971 Q532.686 286.971 534.816 284.471 Q536.969 281.948 536.969 277.781 L536.969 276.832 L532.732 276.832 M541.228 275.073 L541.228 289.865 L536.969 289.865 L536.969 285.929 Q535.51 288.291 533.334 289.425 Q531.158 290.536 528.01 290.536 Q524.029 290.536 521.668 288.314 Q519.33 286.068 519.33 282.318 Q519.33 277.943 522.246 275.721 Q525.186 273.499 530.996 273.499 L536.969 273.499 L536.969 273.082 Q536.969 270.143 535.024 268.545 Q533.103 266.925 529.607 266.925 Q527.385 266.925 525.279 267.457 Q523.172 267.99 521.228 269.055 L521.228 265.119 Q523.566 264.217 525.765 263.777 Q527.964 263.314 530.047 263.314 Q535.672 263.314 538.45 266.231 Q541.228 269.147 541.228 275.073 Z" fill="#000000" fill-rule="nonzero" fill-opacity="1" /><path clip-path="url(#clip380)" d="M566.529 264.703 L566.529 268.731 Q564.723 267.805 562.779 267.342 Q560.834 266.879 558.751 266.879 Q555.58 266.879 553.982 267.851 Q552.408 268.823 552.408 270.768 Q552.408 272.249 553.543 273.105 Q554.677 273.939 558.103 274.703 L559.561 275.027 Q564.098 275.999 565.996 277.781 Q567.917 279.541 567.917 282.712 Q567.917 286.323 565.047 288.429 Q562.2 290.536 557.2 290.536 Q555.117 290.536 552.848 290.119 Q550.603 289.726 548.103 288.916 L548.103 284.517 Q550.464 285.744 552.756 286.369 Q555.047 286.971 557.293 286.971 Q560.302 286.971 561.922 285.953 Q563.542 284.911 563.542 283.036 Q563.542 281.3 562.362 280.374 Q561.205 279.448 557.246 278.592 L555.765 278.244 Q551.806 277.411 550.047 275.698 Q548.288 273.962 548.288 270.953 Q548.288 267.295 550.881 265.305 Q553.473 263.314 558.242 263.314 Q560.603 263.314 562.686 263.661 Q564.769 264.008 566.529 264.703 Z" fill="#000000" fill-rule="nonzero" fill-opacity="1" /><path clip-path="url(#clip380)" d="M574.26 279.633 L574.26 263.939 L578.519 263.939 L578.519 279.471 Q578.519 283.152 579.954 285.004 Q581.39 286.832 584.26 286.832 Q587.709 286.832 589.7 284.633 Q591.714 282.434 591.714 278.638 L591.714 263.939 L595.973 263.939 L595.973 289.865 L591.714 289.865 L591.714 285.883 Q590.163 288.244 588.103 289.402 Q586.066 290.536 583.357 290.536 Q578.89 290.536 576.575 287.758 Q574.26 284.98 574.26 279.633 M584.978 263.314 L584.978 263.314 Z" fill="#000000" fill-rule="nonzero" fill-opacity="1" /><path clip-path="url(#clip380)" d="M619.769 267.92 Q619.051 267.504 618.195 267.318 Q617.362 267.11 616.343 267.11 Q612.732 267.11 610.788 269.471 Q608.866 271.809 608.866 276.207 L608.866 289.865 L604.584 289.865 L604.584 263.939 L608.866 263.939 L608.866 267.967 Q610.209 265.606 612.362 264.471 Q614.514 263.314 617.593 263.314 Q618.033 263.314 618.565 263.383 Q619.098 263.43 619.746 263.545 L619.769 267.92 Z" fill="#000000" fill-rule="nonzero" fill-opacity="1" /><path clip-path="url(#clip380)" d="M645.371 275.837 L645.371 277.92 L625.788 277.92 Q626.065 282.318 628.426 284.633 Q630.811 286.925 635.047 286.925 Q637.5 286.925 639.792 286.323 Q642.107 285.721 644.375 284.517 L644.375 288.545 Q642.084 289.517 639.676 290.027 Q637.269 290.536 634.792 290.536 Q628.588 290.536 624.954 286.925 Q621.343 283.314 621.343 277.156 Q621.343 270.791 624.769 267.064 Q628.218 263.314 634.051 263.314 Q639.283 263.314 642.315 266.693 Q645.371 270.05 645.371 275.837 M641.112 274.587 Q641.065 271.092 639.144 269.008 Q637.246 266.925 634.098 266.925 Q630.533 266.925 628.38 268.939 Q626.25 270.953 625.926 274.61 L641.112 274.587 Z" fill="#000000" fill-rule="nonzero" fill-opacity="1" /><path clip-path="url(#clip380)" d="M669.422 267.874 L669.422 253.846 L673.681 253.846 L673.681 289.865 L669.422 289.865 L669.422 285.976 Q668.079 288.291 666.019 289.425 Q663.982 290.536 661.111 290.536 Q656.412 290.536 653.449 286.786 Q650.51 283.036 650.51 276.925 Q650.51 270.814 653.449 267.064 Q656.412 263.314 661.111 263.314 Q663.982 263.314 666.019 264.448 Q668.079 265.559 669.422 267.874 M654.908 276.925 Q654.908 281.624 656.829 284.309 Q658.773 286.971 662.153 286.971 Q665.533 286.971 667.477 284.309 Q669.422 281.624 669.422 276.925 Q669.422 272.226 667.477 269.564 Q665.533 266.879 662.153 266.879 Q658.773 266.879 656.829 269.564 Q654.908 272.226 654.908 276.925 Z" fill="#000000" fill-rule="nonzero" fill-opacity="1" /><path clip-path="url(#clip380)" d="M711.736 258.476 Q706.644 258.476 703.634 262.272 Q700.648 266.068 700.648 272.619 Q700.648 279.147 703.634 282.943 Q706.644 286.74 711.736 286.74 Q716.829 286.74 719.792 282.943 Q722.778 279.147 722.778 272.619 Q722.778 266.068 719.792 262.272 Q716.829 258.476 711.736 258.476 M711.736 254.68 Q719.005 254.68 723.356 259.564 Q727.708 264.425 727.708 272.619 Q727.708 280.791 723.356 285.675 Q719.005 290.536 711.736 290.536 Q704.445 290.536 700.07 285.675 Q695.718 280.814 695.718 272.619 Q695.718 264.425 700.07 259.564 Q704.445 254.68 711.736 254.68 Z" fill="#000000" fill-rule="nonzero" fill-opacity="1" /><path clip-path="url(#clip380)" d="M739.699 259.147 L739.699 286.022 L745.347 286.022 Q752.5 286.022 755.81 282.781 Q759.143 279.541 759.143 272.55 Q759.143 265.606 755.81 262.388 Q752.5 259.147 745.347 259.147 L739.699 259.147 M735.023 255.305 L744.629 255.305 Q754.676 255.305 759.375 259.494 Q764.074 263.661 764.074 272.55 Q764.074 281.485 759.352 285.675 Q754.629 289.865 744.629 289.865 L735.023 289.865 L735.023 255.305 Z" fill="#000000" fill-rule="nonzero" fill-opacity="1" /></svg>
